HIERARCHY
ROOT Root
{
  OFFSET 0.0 0.0 0.0
  CHANNELS 6 Xposition Yposition Zposition Zrotation Yrotation Xrotation
  JOINT Hips
  {
    OFFSET 0.0 100.0 0.0
    CHANNELS 6 Xposition Yposition Zposition Zrotation Yrotation Xrotation
    JOINT Spine1
    {
      OFFSET -0.013727 5.003763 -0.053727
      CHANNELS 3 Zrotation Yrotation Xrotation
      JOINT Spine2
      {
        OFFSET -0.0 7.125301 -0.029825
        CHANNELS 3 Zrotation Yrotation Xrotation
        JOINT Chest
        {
          OFFSET -1e-06 7.550063 -0.815971
          CHANNELS 3 Zrotation Yrotation Xrotation
          JOINT Neck1
          {
            OFFSET -0.181677 26.311295 -0.553348
            CHANNELS 3 Zrotation Yrotation Xrotation
            JOINT Neck2
            {
              OFFSET -3e-06 7.709397 2.302585
              CHANNELS 3 Zrotation Yrotation Xrotation
              JOINT Head
              {
                OFFSET -5e-06 6.128916 1.953709
                CHANNELS 3 Zrotation Yrotation Xrotation
                JOINT HeadEnd
                {
                  OFFSET 0.003598 16.065403 -1.835379
                  CHANNELS 3 Zrotation Yrotation Xrotation
                }
                JOINT Jaw
                {
                  OFFSET 0.002637 0.475592 3.094941
                  CHANNELS 3 Zrotation Yrotation Xrotation
                }
                JOINT LeftEye
                {
                  OFFSET 3.206381 5.380205 7.586883
                  CHANNELS 3 Zrotation Yrotation Xrotation
                }
                JOINT RightEye
                {
                  OFFSET -3.22244 5.361869 7.558234
                  CHANNELS 3 Zrotation Yrotation Xrotation
                }
              }
            }
          }
          JOINT LeftShoulder
          {
            OFFSET 1.621652 23.237164 5.113413
            CHANNELS 3 Zrotation Yrotation Xrotation
            JOINT LeftArm
            {
              OFFSET 14.919846 2e-06 -5.502326
              CHANNELS 3 Zrotation Yrotation Xrotation
              JOINT LeftForeArm
              {
                OFFSET 28.739307 0.0 -0.002588
                CHANNELS 3 Zrotation Yrotation Xrotation
                JOINT LeftHand
                {
                  OFFSET 27.093981 -1e-06 0.002609
                  CHANNELS 3 Zrotation Yrotation Xrotation
                  JOINT LeftHandThumb1
                  {
                    OFFSET 2.276482 -1.392045 3.191413
                    CHANNELS 3 Zrotation Yrotation Xrotation
                    JOINT LeftHandThumb2
                    {
                      OFFSET 4.012836 -1.828127 1.641654
                      CHANNELS 3 Zrotation Yrotation Xrotation
                      JOINT LeftHandThumb3
                      {
                        OFFSET 2.798515 0.0 -3e-06
                        CHANNELS 3 Zrotation Yrotation Xrotation
                        JOINT LeftHandThumbEnd
                        {
                          OFFSET 3.180793 -4e-06 4e-06
                          CHANNELS 3 Zrotation Yrotation Xrotation
                        }
                      }
                    }
                  }
                  JOINT LeftHandIndex1
                  {
                    OFFSET 3.247555 -0.531998 2.296169
                    CHANNELS 3 Zrotation Yrotation Xrotation
                    JOINT LeftHandIndex2
                    {
                      OFFSET 6.364578 0.01206 0.1786
                      CHANNELS 3 Zrotation Yrotation Xrotation
                      JOINT LeftHandIndex3
                      {
                        OFFSET 3.662364 0.0 0.0
                        CHANNELS 3 Zrotation Yrotation Xrotation
                        JOINT LeftHandIndex4
                        {
                          OFFSET 2.329242 4e-06 4e-06
                          CHANNELS 3 Zrotation Yrotation Xrotation
                          JOINT LeftHandIndexEnd
                          {
                            OFFSET 2.759615 -0.180537 -0.113024
                            CHANNELS 3 Zrotation Yrotation Xrotation
                          }
                        }
                      }
                    }
                  }
                  JOINT LeftHandMiddle1
                  {
                    OFFSET 3.163495 0.240981 1.000332
                    CHANNELS 3 Zrotation Yrotation Xrotation
                    JOINT LeftHandMiddle2
                    {
                      OFFSET 6.19078 -0.259278 -1.002548
                      CHANNELS 3 Zrotation Yrotation Xrotation
                      JOINT LeftHandMiddle3
                      {
                        OFFSET 4.35652 -4e-06 -1e-06
                        CHANNELS 3 Zrotation Yrotation Xrotation
                        JOINT LeftHandMiddle4
                        {
                          OFFSET 2.996877 -8e-06 0.0
                          CHANNELS 3 Zrotation Yrotation Xrotation
                          JOINT LeftHandMiddleEnd
                          {
                            OFFSET 2.304287 -0.294569 -0.031741
                            CHANNELS 3 Zrotation Yrotation Xrotation
                          }
                        }
                      }
                    }
                  }
                  JOINT LeftHandRing1
                  {
                    OFFSET 2.882643 -0.053652 -0.322543
                    CHANNELS 3 Zrotation Yrotation Xrotation
                    JOINT LeftHandRing2
                    {
                      OFFSET 5.854541 -0.486202 -1.373841
                      CHANNELS 3 Zrotation Yrotation Xrotation
                      JOINT LeftHandRing3
                      {
                        OFFSET 4.350578 0.0 3e-06
                        CHANNELS 3 Zrotation Yrotation Xrotation
                        JOINT LeftHandRing4
                        {
                          OFFSET 2.651321 7e-06 2e-06
                          CHANNELS 3 Zrotation Yrotation Xrotation
                          JOINT LeftHandRingEnd
                          {
                            OFFSET 1.936105 0.077687 -7.1e-05
                            CHANNELS 3 Zrotation Yrotation Xrotation
                          }
                        }
                      }
                    }
                  }
                  JOINT LeftHandPinky1
                  {
                    OFFSET 2.8655 -0.310005 -1.600378
                    CHANNELS 3 Zrotation Yrotation Xrotation
                    JOINT LeftHandPinky2
                    {
                      OFFSET 5.087849 -1.331141 -1.77123
                      CHANNELS 3 Zrotation Yrotation Xrotation
                      JOINT LeftHandPinky3
                      {
                        OFFSET 3.070974 4e-06 0.0
                        CHANNELS 3 Zrotation Yrotation Xrotation
                        JOINT LeftHandPinky4
                        {
                          OFFSET 1.549672 0.0 1e-06
                          CHANNELS 3 Zrotation Yrotation Xrotation
                          JOINT LeftHandPinkyEnd
                          {
                            OFFSET 1.944893 -0.157802 0.057219
                            CHANNELS 3 Zrotation Yrotation Xrotation
                          }
                        }
                      }
                    }
                  }
                }
              }
            }
          }
          JOINT RightShoulder
          {
            OFFSET -1.380118 23.180309 5.214158
            CHANNELS 3 Zrotation Yrotation Xrotation
            JOINT RightArm
            {
              OFFSET -15.037196 1.2e-05 -5.545604
              CHANNELS 3 Zrotation Yrotation Xrotation
              JOINT RightForeArm
              {
                OFFSET -28.736639 2e-06 -0.002597
                CHANNELS 3 Zrotation Yrotation Xrotation
                JOINT RightHand
                {
                  OFFSET -27.133619 -0.0 0.002613
                  CHANNELS 3 Zrotation Yrotation Xrotation
                  JOINT RightHandThumb1
                  {
                    OFFSET -2.274032 -1.383988 3.163127
                    CHANNELS 3 Zrotation Yrotation Xrotation
                    JOINT RightHandThumb2
                    {
                      OFFSET -4.011429 -1.827466 1.640914
                      CHANNELS 3 Zrotation Yrotation Xrotation
                      JOINT RightHandThumb3
                      {
                        OFFSET -2.794935 -4e-06 -3e-06
                        CHANNELS 3 Zrotation Yrotation Xrotation
                        JOINT RightHandThumbEnd
                        {
                          OFFSET -3.183852 4e-06 1e-06
                          CHANNELS 3 Zrotation Yrotation Xrotation
                        }
                      }
                    }
                  }
                  JOINT RightHandIndex1
                  {
                    OFFSET -3.253266 -0.520057 2.282866
                    CHANNELS 3 Zrotation Yrotation Xrotation
                    JOINT RightHandIndex2
                    {
                      OFFSET -6.341917 0.012471 0.178266
                      CHANNELS 3 Zrotation Yrotation Xrotation
                      JOINT RightHandIndex3
                      {
                        OFFSET -3.654871 -8e-06 -0.0
                        CHANNELS 3 Zrotation Yrotation Xrotation
                        JOINT RightHandIndex4
                        {
                          OFFSET -2.327586 0.0 1e-06
                          CHANNELS 3 Zrotation Yrotation Xrotation
                          JOINT RightHandIndexEnd
                          {
                            OFFSET -2.76179 -0.180656 -0.113078
                            CHANNELS 3 Zrotation Yrotation Xrotation
                          }
                        }
                      }
                    }
                  }
                  JOINT RightHandMiddle1
                  {
                    OFFSET -3.168106 0.246593 1.00103
                    CHANNELS 3 Zrotation Yrotation Xrotation
                    JOINT RightHandMiddle2
                    {
                      OFFSET -6.180828 -0.258836 -1.000895
                      CHANNELS 3 Zrotation Yrotation Xrotation
                      JOINT RightHandMiddle3
                      {
                        OFFSET -4.348901 0.0 -0.0
                        CHANNELS 3 Zrotation Yrotation Xrotation
                        JOINT RightHandMiddle4
                        {
                          OFFSET -3.00024 -4e-06 -2e-06
                          CHANNELS 3 Zrotation Yrotation Xrotation
                          JOINT RightHandMiddleEnd
                          {
                            OFFSET -2.30252 -0.29437 -0.031706
                            CHANNELS 3 Zrotation Yrotation Xrotation
                          }
                        }
                      }
                    }
                  }
                  JOINT RightHandRing1
                  {
                    OFFSET -2.88569 -0.067952 -0.308858
                    CHANNELS 3 Zrotation Yrotation Xrotation
                    JOINT RightHandRing2
                    {
                      OFFSET -5.854198 -0.48613 -1.373731
                      CHANNELS 3 Zrotation Yrotation Xrotation
                      JOINT RightHandRing3
                      {
                        OFFSET -4.33881 -4e-06 -0.0
                        CHANNELS 3 Zrotation Yrotation Xrotation
                        JOINT RightHandRing4
                        {
                          OFFSET -2.654903 -4e-06 4e-06
                          CHANNELS 3 Zrotation Yrotation Xrotation
                          JOINT RightHandRingEnd
                          {
                            OFFSET -1.933568 0.077527 -5.2e-05
                            CHANNELS 3 Zrotation Yrotation Xrotation
                          }
                        }
                      }
                    }
                  }
                  JOINT RightHandPinky1
                  {
                    OFFSET -2.866425 -0.342796 -1.584145
                    CHANNELS 3 Zrotation Yrotation Xrotation
                    JOINT RightHandPinky2
                    {
                      OFFSET -5.091371 -1.332055 -1.772385
                      CHANNELS 3 Zrotation Yrotation Xrotation
                      JOINT RightHandPinky3
                      {
                        OFFSET -3.062664 -4e-06 1e-06
                        CHANNELS 3 Zrotation Yrotation Xrotation
                        JOINT RightHandPinky4
                        {
                          OFFSET -1.546529 4e-06 -2e-06
                          CHANNELS 3 Zrotation Yrotation Xrotation
                          JOINT RightHandPinkyEnd
                          {
                            OFFSET -1.945119 -0.157718 0.057211
                            CHANNELS 3 Zrotation Yrotation Xrotation
                          }
                        }
                      }
                    }
                  }
                }
              }
            }
          }
        }
      }
    }
    JOINT LeftLeg
    {
      OFFSET 10.043214 -8.434526 2.595655
      CHANNELS 3 Zrotation Yrotation Xrotation
      JOINT LeftShin
      {
        OFFSET -1e-06 -43.221752 -0.802913
        CHANNELS 3 Zrotation Yrotation Xrotation
        JOINT LeftFoot
        {
          OFFSET 1e-06 -42.155094 -3.481523
          CHANNELS 3 Zrotation Yrotation Xrotation
          JOINT LeftToeBase
          {
            OFFSET 0.0 -5.059472 13.231529
            CHANNELS 3 Zrotation Yrotation Xrotation
            JOINT LeftToeEnd
            {
              OFFSET -0.009607 -1.647619 6.513017
              CHANNELS 3 Zrotation Yrotation Xrotation
            }
          }
        }
      }
    }
    JOINT RightLeg
    {
      OFFSET -10.047278 -8.29526 2.620317
      CHANNELS 3 Zrotation Yrotation Xrotation
      JOINT RightShin
      {
        OFFSET 1e-06 -43.362206 -0.805556
        CHANNELS 3 Zrotation Yrotation Xrotation
        JOINT RightFoot
        {
          OFFSET 2e-06 -42.117393 -3.478398
          CHANNELS 3 Zrotation Yrotation Xrotation
          JOINT RightToeBase
          {
            OFFSET -0.0 -5.079609 13.284196
            CHANNELS 3 Zrotation Yrotation Xrotation
            JOINT RightToeEnd
            {
              OFFSET 0.009532 -1.634378 6.460591
              CHANNELS 3 Zrotation Yrotation Xrotation
            }
          }
        }
      }
    }
  }
}
MOTION
Frames: 4
Frame Time: 0.03333333333333333
0.0 0.0 0.0 0.0 -0.0 0.0 -0.860765 97.769455 3.033454 -1.128874 -0.112785 6.233437 -0.308802 0.118011 -0.269159 -0.521327 0.253861 -5.274413 -0.017597 -1.53226 12.63783 1.416337 2.480278 -0.049718 -0.875321 0.238038 -3.676795 0.283246 -0.49161 -10.152864 7.7e-05 -2.2e-05 6e-06 0.015538 -0.102316 -0.002676 0.745591 -3.838218 -10.591943 -0.717683 3.638935 -10.582583 -17.04664 -4.491087 17.605532 -50.920555 -8.853049 12.770034 0.32656 -43.682377 -0.064014 8.343414 1.537139 -7.626698 -5.88211 9.86129 0.702592 -10.936876 -0.360572 7.156208 -0.0 8.77483 1e-06 -15.476427 18.007162 6.5511 -1.844033 2.498504 -2.507279 -10.163604 4.678949 4.621111 -20.976032 -1e-06 -1e-06 -21.226297 2.4517 -3.594003 1e-06 -6e-06 -0.0 -1.362682 2.240799 -0.746324 -21.334921 0.584912 3.008322 -13.82122 -1e-06 1e-06 -23.88718 -0.249078 -0.839487 -59.998199 2.284786 -0.749275 -0.294025 1.679687 0.833256 -14.218215 0.093217 1.30058 -34.212067 -0.287561 0.967167 -20.033222 0.964537 1.21284 0.0 0.0 0.0 -3.44039 0.788234 0.501656 -15.928192 -3.167309 2.999706 -6.338829 0.0 0.0 -18.123459 3.648185 -4.905673 -4e-06 1e-06 -1e-06 10.56455 10.905827 18.728685 57.50301 24.010235 33.685993 -0.21628 37.03577 0.056929 -10.038431 -0.523783 -17.230133 2.243543 -5.255037 -3.18016 14.282897 -0.826596 6.952506 -3e-06 -12.690604 1e-06 15.942422 -17.481577 2.909814 1.665666 -1.955923 -2.8783 4.727801 -4.170589 4.993927 11.020535 2e-06 -1e-06 12.109059 -3.735717 -2.866783 1e-06 -0.0 2e-06 1.291987 -1.92855 -1.49809 14.800136 0.567468 3.86561 14.24258 -1.341738 -6.660661 19.631981 0.143927 -0.648246 49.37225 -0.638005 -6.016411 0.353028 -1.511152 -0.031942 20.222803 3.684309 2.316635 18.787285 4e-06 0.0 10.751633 -0.47987 1.397906 0.0 1e-06 1e-06 3.273808 0.305947 -0.58011 21.486824 11.830376 2.266135 8.16293 -0.0 -2e-06 18.399094 -3.798987 -4.940579 3e-06 0.0 -1e-06 -2.45749 5.709773 -14.861481 0.119652 0.163414 26.110716 -2.964469 15.375257 -18.789095 1.5835 -2.023551 -0.733674 -0.0 -0.0 2e-06 -2.984635 -7.711387 -5.514538 -0.025744 0.040307 16.777197 2.211048 6.739553 -17.067682 -1.447641 0.874619 0.057221 0.0 -0.0 -1e-06 
0.0 0.0 0.0 0.0 -0.0 0.0 -0.519557 97.372513 3.7533 0.127313 -0.049691 6.52686 -1.357487 0.039341 0.627187 -0.714436 0.377812 -5.021446 -0.578087 -1.314902 12.345882 2.36113 2.251101 0.403321 -0.90305 -0.174052 -3.575537 0.38058 -0.937197 -11.12164 7.7e-05 -2.2e-05 6e-06 0.020775 -0.04545 0.006806 0.756298 -3.792262 -10.611384 -0.717228 3.704901 -10.630809 -14.356462 -4.802033 18.311211 -52.871178 -7.238632 12.725993 -0.514131 -46.787369 0.356752 8.326603 1.317454 -5.55343 -5.882108 9.861289 0.70259 -10.936872 -0.360573 7.156206 -1e-06 8.774828 0.0 -15.216917 17.959446 6.561991 -1.844033 2.498505 -2.507278 -10.1636 4.678948 4.621109 -20.976023 -0.0 -0.0 -21.226286 2.451699 -3.594004 1e-06 -6e-06 -1e-06 -1.362682 2.240798 -0.746322 -21.334913 0.584913 3.008319 -13.821215 -1e-06 0.0 -23.887171 -0.249078 -0.839487 -59.942081 2.304057 -0.748041 -0.294026 1.679689 0.833255 -14.218209 0.093218 1.30058 -34.212051 -0.287558 0.967165 -20.033216 0.964537 1.212839 -0.0 0.0 -1e-06 -3.440389 0.788235 0.501657 -15.928185 -3.167306 2.999707 -6.338826 -0.0 -1e-06 -18.123444 3.648187 -4.905671 -3e-06 0.0 -3e-06 8.744432 11.182218 18.508722 58.346455 25.217329 30.693699 -0.34275 42.110973 -0.137777 -10.062005 -1.77783 -17.722305 2.243543 -5.255041 -3.180159 14.282898 -0.826596 6.952505 0.0 -12.69061 0.0 16.094818 -17.439886 2.875436 1.665667 -1.955923 -2.878299 4.727802 -4.17059 4.993926 11.020534 1e-06 -1e-06 12.109059 -3.73572 -2.866783 0.0 -1e-06 2e-06 1.291986 -1.928551 -1.498089 14.800136 0.567465 3.865609 14.242579 -1.34174 -6.660661 19.631981 0.143924 -0.648246 49.666122 -0.640342 -6.027011 0.35303 -1.511153 -0.031942 20.222801 3.684309 2.31663 18.787287 3e-06 -1e-06 10.751633 -0.479872 1.397905 1e-06 2e-06 0.0 3.273808 0.305946 -0.580112 21.486822 11.830379 2.266134 8.16293 -1e-06 -2e-06 18.399094 -3.79899 -4.94058 3e-06 -1e-06 -0.0 -4.089127 4.599032 -14.837671 0.07236 0.026977 26.441504 -3.904572 16.38172 -19.796116 1.604796 -2.078661 -0.745282 -0.0 -1e-06 2e-06 -4.605949 -7.735912 -6.781924 -0.032701 0.089461 19.841511 2.012 6.173396 -19.173157 -1.486345 0.844536 -0.724597 -0.0 -0.0 -1e-06 
0.0 0.0 0.0 0.0 -0.0 0.0 0.148348 96.85128 5.193769 1.528852 0.319387 6.702332 -2.393747 -0.106986 1.756612 -0.891211 0.520202 -4.604751 -1.276005 -1.292976 12.506332 3.232447 2.092673 0.405618 -1.001782 -0.665588 -3.58268 0.386777 -1.480968 -11.757484 7.7e-05 -2.2e-05 6e-06 0.023423 -0.056014 0.015009 0.749855 -3.796129 -10.609752 -0.705784 3.684805 -10.624091 -13.099407 -5.597701 19.076488 -52.532921 -6.408988 13.367916 -1.002412 -49.208187 0.843444 7.075788 1.888866 -3.524178 -5.882108 9.861287 0.702591 -10.936877 -0.360574 7.156212 0.0 8.774828 0.0 -15.251621 18.070591 6.450236 -1.844033 2.498504 -2.507278 -10.163603 4.678946 4.62111 -20.97603 -4e-06 1e-06 -21.226292 2.451698 -3.594 1e-06 -6e-06 -2e-06 -1.362682 2.240798 -0.746322 -21.334925 0.58491 3.008325 -13.82122 -4e-06 1e-06 -23.887184 -0.24908 -0.839481 -60.244255 2.406842 -0.904049 -0.294025 1.679689 0.833254 -14.218215 0.093215 1.30058 -34.21207 -0.287563 0.96717 -20.033226 0.964538 1.212844 -0.0 -1e-06 -1e-06 -3.440389 0.788234 0.501655 -15.928192 -3.16731 2.999708 -6.338829 -1e-06 0.0 -18.123453 3.648183 -4.905672 -3e-06 -0.0 -2e-06 7.693874 11.613686 18.157839 58.448151 26.270426 27.09927 -0.40243 48.556499 -0.225211 -10.157375 -2.30153 -17.837545 2.243542 -5.255038 -3.180158 14.282893 -0.826594 6.952501 -3e-06 -12.690607 1e-06 16.190226 -17.447437 2.856169 1.665666 -1.95592 -2.878299 4.727799 -4.17059 4.993922 11.020528 2e-06 -4e-06 12.109055 -3.735715 -2.866786 0.0 0.0 2e-06 1.291986 -1.92855 -1.498087 14.800131 0.567469 3.865606 14.242576 -1.341734 -6.66066 19.631969 0.143928 -0.648246 49.780682 -0.733967 -6.012191 0.353029 -1.511149 -0.031939 20.222795 3.684312 2.316629 18.787273 7e-06 -3e-06 10.75163 -0.479868 1.397905 1e-06 1e-06 -1e-06 3.273808 0.305946 -0.58011 21.48682 11.830377 2.266132 8.162928 1e-06 -2e-06 18.399084 -3.798984 -4.940578 3e-06 -0.0 -0.0 -6.023772 3.071878 -14.049545 0.052885 0.001634 26.527803 -4.309699 17.150656 -21.075432 1.62397 -2.114571 -0.720347 -0.0 -0.0 2e-06 -6.348715 -7.727984 -10.425839 0.048886 0.263189 28.061472 1.327591 4.757622 -19.523878 -1.502205 0.800506 -2.610311 0.0 -0.0 -1e-06 
0.0 0.0 0.0 0.0 -0.0 0.0 0.787202 96.290962 6.675139 2.502626 0.838032 6.723891 -2.96949 -0.291129 3.080518 -1.027328 0.533249 -4.1582 -1.75225 -1.272785 13.169556 3.493344 2.124729 0.120779 -1.136241 -1.165347 -3.603038 0.422131 -1.727576 -12.265462 7.7e-05 -2.3e-05 6e-06 0.030934 -0.104003 -0.00311 0.754343 -3.830332 -10.572242 -0.695584 3.620997 -10.592667 -13.62929 -6.452698 19.824968 -50.025074 -6.701053 13.780438 -0.68825 -50.951721 0.756786 5.689567 2.85951 -1.638004 -5.882109 9.861289 0.702589 -10.936878 -0.360577 7.156206 3e-06 8.774829 -1e-06 -15.498843 18.173454 6.311175 -1.844034 2.498506 -2.507279 -10.163606 4.678946 4.621109 -20.97604 -9e-06 -1e-06 -21.226301 2.451692 -3.594002 2e-06 -6e-06 -1e-06 -1.362682 2.240799 -0.746324 -21.334929 0.584907 3.008321 -13.821223 -6e-06 -2e-06 -23.88719 -0.249085 -0.839484 -60.571671 2.435472 -0.985088 -0.294024 1.679687 0.833258 -14.218219 0.093213 1.300578 -34.212074 -0.287571 0.967169 -20.03323 0.964533 1.212845 0.0 1e-06 1e-06 -3.440391 0.788233 0.501655 -15.9282 -3.167314 2.999705 -6.33883 -2e-06 -0.0 -18.123459 3.648179 -4.905672 -2e-06 0.0 -1e-06 7.326128 12.117201 17.864592 57.932571 27.517612 22.947767 -0.363156 55.736034 -0.241431 -10.504686 -2.30601 -17.177214 2.243544 -5.25504 -3.180161 14.282896 -0.826594 6.952504 -3e-06 -12.690612 1e-06 16.249327 -17.529222 2.857848 1.665668 -1.955921 -2.878301 4.727798 -4.170589 4.993926 11.020529 6e-06 -3e-06 12.109056 -3.735714 -2.86679 2e-06 2e-06 -0.0 1.291985 -1.92855 -1.49809 14.800134 0.56747 3.865608 14.242578 -1.341734 -6.660664 19.631975 0.14393 -0.648246 49.913319 -0.775718 -5.962934 0.353029 -1.511152 -0.03194 20.222801 3.684315 2.316626 18.787283 9e-06 -1e-06 10.751633 -0.479868 1.397907 1e-06 2e-06 0.0 3.273808 0.30595 -0.580111 21.486822 11.830387 2.266129 8.16293 2e-06 -2e-06 18.399088 -3.798986 -4.940579 4e-06 -0.0 -2e-06 -7.471793 1.770557 -13.22039 0.076585 0.00735 26.996449 -4.558987 17.616705 -22.501635 1.623271 -2.151943 -0.526824 0.0 -1e-06 2e-06 -7.406463 -7.75051 -15.978686 0.130523 0.255836 40.093914 -0.774837 1.487931 -17.011728 -1.484411 0.785306 -4.830794 -0.0 0.0 -1e-06 
